<?xml version="1.0" encoding="iso-8859-1"?>
<!-- Uploaded to: SVG Repo, www.svgrepo.com, Generator: SVG Repo Mixer Tools -->
<!DOCTYPE svg PUBLIC "-//W3C//DTD SVG 1.1//EN" "http://www.w3.org/Graphics/SVG/1.1/DTD/svg11.dtd">
<svg fill="#fafafa" height="200px" width="200px" version="1.1" id="Capa_1" xmlns="http://www.w3.org/2000/svg" xmlns:xlink="http://www.w3.org/1999/xlink" 
	 viewBox="0 0 50.83 50.83" xml:space="preserve">
<g>
	<path d="M49.936,10.164c-0.757-1.649-2.09-2.752-3.962-3.277c-0.081-0.036-0.232-0.098-0.413-0.168
		c1.012-1.368,1.452-2.82,1.172-4.031c-0.192-0.831-0.804-1.962-2.623-2.627c-0.519-0.188-1.094,0.077-1.283,0.596
		c-0.189,0.52,0.077,1.094,0.596,1.283c0.786,0.287,1.244,0.69,1.362,1.199c0.176,0.762-0.333,1.91-1.297,2.958
		c-0.772-0.168-1.665-0.295-2.611-0.295c-2.516,0-6.673,0.981-8.336,6.957l0.737-0.034c3.507-0.267,5.164-0.933,5.536-1.466
		l0.683-0.98l0.844,0.845c0.085,0.085,1.738,1.775,1.591,4.335c0.898-0.38,1.857-1.116,1.707-2.521l-0.27-2.513l1.916,1.648
		c0.107,0.093,2.255,1.98,2.448,5.099c0.262-0.172,0.54-0.38,0.817-0.627l0.096-0.075l1.92-1.332
		C50.729,13.393,50.611,11.635,49.936,10.164z"/>
	<path d="M46.922,19.787l-1.573,0.477l0.301-1.617c0.263-1.406-0.053-2.574-0.479-3.434c-0.953,1.723-3.09,2.458-4.424,2.61
		l-1.603,0.184l0.548-1.517c0.493-1.364,0.144-2.488-0.229-3.185c-0.912,0.548-2.645,1.155-6.064,1.415l-1.291,0.06
		c-0.017,0.108-0.04,0.203-0.055,0.313c-0.135,0.465-0.268,0.958-0.395,1.515c-3.387,14.917-15.77,22.836-30.397,30.936
		c-0.78,0.433-1.224,1.421-1.01,2.248c0.163,0.631,0.679,1.038,1.315,1.038l0.226-0.017c1.241-0.188,2.766-0.306,4.532-0.444
		c10.971-0.856,31.394-2.45,41.922-27.125c0.086-0.178,1.175-2.496,1.853-5.349l-0.264,0.183
		C48.417,19.326,46.984,19.768,46.922,19.787z M16.03,45.949c-0.102,0.032-0.205,0.048-0.307,0.048c-0.423,0-0.815-0.27-0.952-0.693
		c-0.169-0.525,0.119-1.089,0.645-1.259c21.656-6.978,24.045-21.793,24.067-21.941c0.079-0.547,0.587-0.937,1.133-0.846
		c0.547,0.079,0.925,0.586,0.846,1.133C41.368,23.048,38.861,38.591,16.03,45.949z"/>
</g>
</svg>