<?xml version="1.0" encoding="UTF-8"?><svg id="Capa_1" xmlns="http://www.w3.org/2000/svg" viewBox="0 0 628.29 681.61"><defs><style>.cls-1{stroke-width:0px;}</style></defs><path fill="#f5f5f5" class="cls-1" d="m215.88,141.66c-3.29-7.16-9.07-11.94-17.2-14.22-.35-.16-1.01-.43-1.79-.73,4.39-5.94,6.3-12.24,5.09-17.5-.83-3.61-3.49-8.52-11.38-11.4-2.25-.82-4.75.33-5.57,2.59-.82,2.26.33,4.75,2.59,5.57,3.41,1.25,5.4,2.99,5.91,5.2.76,3.31-1.45,8.29-5.63,12.84-3.35-.73-7.23-1.28-11.33-1.28-10.92,0-28.96,4.26-36.18,30.19l3.2-.15c15.22-1.16,22.41-4.05,24.03-6.36l2.96-4.25,3.66,3.67c.37.37,7.54,7.7,6.91,18.81,3.9-1.65,8.06-4.84,7.41-10.94l-1.17-10.91,8.32,7.15c.46.4,9.79,8.59,10.62,22.13,1.14-.75,2.34-1.65,3.55-2.72l.42-.33,8.33-5.78c.71-7.57.2-15.2-2.73-21.59Z"/><path fill="#f5f5f5" class="cls-1" d="m202.8,183.43l-6.83,2.07,1.31-7.02c1.14-6.1-.23-11.17-2.08-14.9-4.14,7.48-13.41,10.67-19.2,11.33l-6.96.8,2.38-6.58c2.14-5.92.62-10.8-.99-13.82-3.96,2.38-11.48,5.01-26.32,6.14l-5.6.26c-.07.47-.17.88-.24,1.36-.59,2.02-1.16,4.16-1.71,6.58-14.7,64.74-68.45,99.11-131.93,134.27-3.39,1.88-5.31,6.17-4.38,9.76.71,2.74,2.95,4.51,5.71,4.51l.98-.07c5.39-.82,12.01-1.33,19.67-1.93,47.62-3.72,136.26-10.63,181.95-117.73.37-.77,5.1-10.83,8.04-23.22l-1.15.79c-6.15,5.42-12.37,7.33-12.64,7.42Zm-134.08,113.55c-.44.14-.89.21-1.33.21-1.84,0-3.54-1.17-4.13-3.01-.73-2.28.52-4.73,2.8-5.46,93.99-30.29,104.36-94.59,104.46-95.23.34-2.37,2.55-4.07,4.92-3.67,2.37.34,4.01,2.54,3.67,4.92-.41,2.85-11.29,70.31-110.38,102.25Z"/><path fill="#f5f5f5" class="cls-1" d="m619.88,44.11c-3.29-7.16-9.07-11.94-17.2-14.22-.35-.16-1.01-.43-1.79-.73,4.39-5.94,6.3-12.24,5.09-17.5-.83-3.61-3.49-8.52-11.38-11.4-2.25-.82-4.75.33-5.57,2.59-.82,2.26.33,4.75,2.59,5.57,3.41,1.25,5.4,2.99,5.91,5.2.76,3.31-1.45,8.29-5.63,12.84-3.35-.73-7.23-1.28-11.33-1.28-10.92,0-28.96,4.26-36.18,30.19l3.2-.15c15.22-1.16,22.41-4.05,24.03-6.36l2.96-4.25,3.66,3.67c.37.37,7.54,7.7,6.91,18.81,3.9-1.65,8.06-4.84,7.41-10.94l-1.17-10.91,8.32,7.15c.46.4,9.79,8.59,10.62,22.13,1.14-.75,2.34-1.65,3.55-2.72l.42-.33,8.33-5.78c.71-7.57.2-15.2-2.73-21.59Z"/><path fill="#f5f5f5" class="cls-1" d="m606.8,85.88l-6.83,2.07,1.31-7.02c1.14-6.1-.23-11.17-2.08-14.9-4.14,7.48-13.41,10.67-19.2,11.33l-6.96.8,2.38-6.58c2.14-5.92.62-10.8-.99-13.82-3.96,2.38-11.48,5.01-26.32,6.14l-5.6.26c-.07.47-.17.88-.24,1.36-.59,2.02-1.16,4.16-1.71,6.58-14.7,64.74-68.45,99.11-131.93,134.27-3.39,1.88-5.31,6.17-4.38,9.76.71,2.74,2.95,4.51,5.71,4.51l.98-.07c5.39-.82,12.01-1.33,19.67-1.93,47.62-3.72,136.26-10.63,181.95-117.73.37-.77,5.1-10.83,8.04-23.22l-1.15.79c-6.15,5.42-12.37,7.33-12.64,7.42Zm-134.08,113.55c-.44.14-.89.21-1.33.21-1.84,0-3.54-1.17-4.13-3.01-.73-2.28.52-4.73,2.8-5.46,93.99-30.29,104.36-94.59,104.46-95.23.34-2.37,2.55-4.07,4.92-3.67,2.37.34,4.01,2.54,3.67,4.92-.41,2.85-11.29,70.31-110.38,102.25Z"/><path fill="#f5f5f5" class="cls-1" d="m221.27,505.11c-3.29-7.16-9.07-11.94-17.2-14.22-.35-.16-1.01-.43-1.79-.73,4.39-5.94,6.3-12.24,5.09-17.5-.83-3.61-3.49-8.52-11.38-11.4-2.25-.82-4.75.33-5.57,2.59-.82,2.26.33,4.75,2.59,5.57,3.41,1.25,5.4,2.99,5.91,5.2.76,3.31-1.45,8.29-5.63,12.84-3.35-.73-7.23-1.28-11.33-1.28-10.92,0-28.96,4.26-36.18,30.19l3.2-.15c15.22-1.16,22.41-4.05,24.03-6.36l2.96-4.25,3.66,3.67c.37.37,7.54,7.7,6.91,18.81,3.9-1.65,8.06-4.84,7.41-10.94l-1.17-10.91,8.32,7.15c.46.4,9.79,8.59,10.62,22.13,1.14-.75,2.34-1.65,3.55-2.72l.42-.33,8.33-5.78c.71-7.57.2-15.2-2.73-21.59Z"/><path fill="#f5f5f5" class="cls-1" d="m208.19,546.88l-6.83,2.07,1.31-7.02c1.14-6.1-.23-11.17-2.08-14.9-4.14,7.48-13.41,10.67-19.2,11.33l-6.96.8,2.38-6.58c2.14-5.92.62-10.8-.99-13.82-3.96,2.38-11.48,5.01-26.32,6.14l-5.6.26c-.07.47-.17.88-.24,1.36-.59,2.02-1.16,4.16-1.71,6.58-14.7,64.74-68.45,99.11-131.93,134.27-3.39,1.88-5.31,6.17-4.38,9.76.71,2.74,2.95,4.51,5.71,4.51l.98-.07c5.39-.82,12.01-1.33,19.67-1.93,47.62-3.72,136.26-10.63,181.95-117.73.37-.77,5.1-10.83,8.04-23.22l-1.15.79c-6.15,5.42-12.37,7.33-12.64,7.42Zm-134.08,113.55c-.44.14-.89.21-1.33.21-1.84,0-3.54-1.17-4.13-3.01-.73-2.28.52-4.73,2.8-5.46,93.99-30.29,104.36-94.59,104.46-95.23.34-2.37,2.55-4.07,4.92-3.67,2.37.34,4.01,2.54,3.67,4.92-.41,2.85-11.29,70.31-110.38,102.25Z"/><path fill="#f5f5f5" class="cls-1" d="m625.27,407.56c-3.29-7.16-9.07-11.94-17.2-14.22-.35-.16-1.01-.43-1.79-.73,4.39-5.94,6.3-12.24,5.09-17.5-.83-3.61-3.49-8.52-11.38-11.4-2.25-.82-4.75.33-5.57,2.59-.82,2.26.33,4.75,2.59,5.57,3.41,1.25,5.4,2.99,5.91,5.2.76,3.31-1.45,8.29-5.63,12.84-3.35-.73-7.23-1.28-11.33-1.28-10.92,0-28.96,4.26-36.18,30.19l3.2-.15c15.22-1.16,22.41-4.05,24.03-6.36l2.96-4.25,3.66,3.67c.37.37,7.54,7.7,6.91,18.81,3.9-1.65,8.06-4.84,7.41-10.94l-1.17-10.91,8.32,7.15c.46.4,9.79,8.59,10.62,22.13,1.14-.75,2.34-1.65,3.55-2.72l.42-.33,8.33-5.78c.71-7.57.2-15.2-2.73-21.59Z"/><path fill="#f5f5f5" class="cls-1" d="m612.19,449.33l-6.83,2.07,1.31-7.02c1.14-6.1-.23-11.17-2.08-14.9-4.14,7.48-13.41,10.67-19.2,11.33l-6.96.8,2.38-6.58c2.14-5.92.62-10.8-.99-13.82-3.96,2.38-11.48,5.01-26.32,6.14l-5.6.26c-.07.47-.17.88-.24,1.36-.59,2.02-1.16,4.16-1.71,6.58-14.7,64.74-68.45,99.11-131.93,134.27-3.39,1.88-5.31,6.17-4.38,9.76.71,2.74,2.95,4.51,5.71,4.51l.98-.07c5.39-.82,12.01-1.33,19.67-1.93,47.62-3.72,136.26-10.63,181.95-117.73.37-.77,5.1-10.83,8.04-23.22l-1.15.79c-6.15,5.42-12.37,7.33-12.64,7.42Zm-134.08,113.55c-.44.14-.89.21-1.33.21-1.84,0-3.54-1.17-4.13-3.01-.73-2.28.52-4.73,2.8-5.46,93.99-30.29,104.36-94.59,104.46-95.23.34-2.37,2.55-4.07,4.92-3.67,2.37.34,4.01,2.54,3.67,4.92-.41,2.85-11.29,70.31-110.38,102.25Z"/></svg>